<mxfile host="app.diagrams.net" modified="2023-06-08T20:20:37.940Z" agent="Mozilla/5.0 (Windows NT 10.0; Win64; x64) AppleWebKit/537.36 (KHTML, like Gecko) Chrome/114.0.0.0 Safari/537.36" etag="4sgBYp2_xyeRTY3EQLfw" version="21.3.8" type="device">
  <diagram name="Page-1" id="e7e014a7-5840-1c2e-5031-d8a46d1fe8dd">
    <mxGraphModel dx="2049" dy="1010" grid="1" gridSize="10" guides="1" tooltips="1" connect="1" arrows="1" fold="1" page="1" pageScale="1" pageWidth="1169" pageHeight="826" background="none" math="0" shadow="0">
      <root>
        <mxCell id="0" />
        <mxCell id="1" parent="0" />
        <mxCell id="2" value="Guest1" style="swimlane;whiteSpace=wrap;fontStyle=2" parent="1" vertex="1">
          <mxGeometry x="170" y="130" width="285.5" height="1320" as="geometry" />
        </mxCell>
        <mxCell id="5" value="" style="ellipse;shape=startState;fillColor=#000000;strokeColor=#ff0000;" parent="2" vertex="1">
          <mxGeometry x="125" y="40" width="30" height="30" as="geometry" />
        </mxCell>
        <mxCell id="58YgrpQiF_lO7uGcpOr1-41" value="Create forum" style="rounded=1;whiteSpace=wrap;html=1;fillColor=#dae8fc;strokeColor=#6c8ebf;" parent="2" vertex="1">
          <mxGeometry x="80" y="122" width="120" height="60" as="geometry" />
        </mxCell>
        <mxCell id="6" value="" style="edgeStyle=elbowEdgeStyle;elbow=horizontal;verticalAlign=bottom;endArrow=open;endSize=8;strokeColor=#FF0000;endFill=1;rounded=0;" parent="2" source="5" edge="1">
          <mxGeometry x="100" y="40" as="geometry">
            <mxPoint x="140.5" y="121" as="targetPoint" />
            <Array as="points">
              <mxPoint x="140" y="92" />
            </Array>
          </mxGeometry>
        </mxCell>
        <mxCell id="58YgrpQiF_lO7uGcpOr1-93" value="" style="endArrow=open;strokeColor=#FF0000;endFill=1;rounded=0;exitX=0.5;exitY=1;exitDx=0;exitDy=0;entryX=0.5;entryY=0;entryDx=0;entryDy=0;" parent="2" source="58YgrpQiF_lO7uGcpOr1-41" target="58YgrpQiF_lO7uGcpOr1-126" edge="1">
          <mxGeometry relative="1" as="geometry">
            <mxPoint x="135.5" y="192" as="sourcePoint" />
            <mxPoint x="140" y="240" as="targetPoint" />
          </mxGeometry>
        </mxCell>
        <mxCell id="58YgrpQiF_lO7uGcpOr1-126" value="Do you want to create another forum?" style="rhombus;whiteSpace=wrap;html=1;fillColor=#fff2cc;strokeColor=#d6b656;" parent="2" vertex="1">
          <mxGeometry x="70" y="240" width="140" height="140" as="geometry" />
        </mxCell>
        <mxCell id="58YgrpQiF_lO7uGcpOr1-127" value="" style="endArrow=open;strokeColor=#FF0000;endFill=1;rounded=0;exitX=0;exitY=0.5;exitDx=0;exitDy=0;entryX=0;entryY=0.5;entryDx=0;entryDy=0;" parent="2" source="58YgrpQiF_lO7uGcpOr1-126" target="58YgrpQiF_lO7uGcpOr1-41" edge="1">
          <mxGeometry relative="1" as="geometry">
            <mxPoint x="50" y="570" as="sourcePoint" />
            <mxPoint x="40" y="150" as="targetPoint" />
            <Array as="points">
              <mxPoint x="30" y="310" />
              <mxPoint x="30" y="152" />
            </Array>
          </mxGeometry>
        </mxCell>
        <mxCell id="58YgrpQiF_lO7uGcpOr1-132" value="Yes" style="text;html=1;strokeColor=none;fillColor=none;align=center;verticalAlign=middle;whiteSpace=wrap;rounded=0;" parent="2" vertex="1">
          <mxGeometry x="30" y="280" width="60" height="30" as="geometry" />
        </mxCell>
        <mxCell id="58YgrpQiF_lO7uGcpOr1-133" value="" style="ellipse;shape=endState;fillColor=#000000;strokeColor=#ff0000" parent="2" vertex="1">
          <mxGeometry x="125" y="420" width="30" height="30" as="geometry" />
        </mxCell>
        <mxCell id="58YgrpQiF_lO7uGcpOr1-134" value="" style="endArrow=open;strokeColor=#FF0000;endFill=1;rounded=0;exitX=0.5;exitY=1;exitDx=0;exitDy=0;" parent="2" source="58YgrpQiF_lO7uGcpOr1-126" target="58YgrpQiF_lO7uGcpOr1-133" edge="1">
          <mxGeometry relative="1" as="geometry">
            <mxPoint x="140.5" y="600" as="sourcePoint" />
          </mxGeometry>
        </mxCell>
        <mxCell id="58YgrpQiF_lO7uGcpOr1-135" value="No" style="text;html=1;strokeColor=none;fillColor=none;align=center;verticalAlign=middle;whiteSpace=wrap;rounded=0;" parent="2" vertex="1">
          <mxGeometry x="80" y="380" width="60" height="30" as="geometry" />
        </mxCell>
        <mxCell id="3" value="System" style="swimlane;whiteSpace=wrap;startSize=23;fontStyle=2" parent="1" vertex="1">
          <mxGeometry x="455.5" y="130" width="317.5" height="1320" as="geometry" />
        </mxCell>
        <mxCell id="58YgrpQiF_lO7uGcpOr1-50" value="Save new forum" style="rounded=1;whiteSpace=wrap;html=1;fillColor=#dae8fc;strokeColor=#6c8ebf;" parent="3" vertex="1">
          <mxGeometry x="24.5" y="122" width="120" height="60" as="geometry" />
        </mxCell>
        <mxCell id="58YgrpQiF_lO7uGcpOr1-58" value="Show forums" style="rounded=1;whiteSpace=wrap;html=1;fillColor=#dae8fc;strokeColor=#6c8ebf;" parent="3" vertex="1">
          <mxGeometry x="85" y="302" width="120" height="60" as="geometry" />
        </mxCell>
        <mxCell id="58YgrpQiF_lO7uGcpOr1-73" value="Post comment" style="rounded=1;whiteSpace=wrap;html=1;fillColor=#dae8fc;strokeColor=#6c8ebf;" parent="3" vertex="1">
          <mxGeometry x="85" y="832" width="120" height="60" as="geometry" />
        </mxCell>
        <mxCell id="58YgrpQiF_lO7uGcpOr1-77" value="Show chosen forum" style="rounded=1;whiteSpace=wrap;html=1;fillColor=#dae8fc;strokeColor=#6c8ebf;" parent="3" vertex="1">
          <mxGeometry x="85" y="622" width="120" height="60" as="geometry" />
        </mxCell>
        <mxCell id="58YgrpQiF_lO7uGcpOr1-136" value="Send notification" style="rounded=1;whiteSpace=wrap;html=1;fillColor=#dae8fc;strokeColor=#6c8ebf;" parent="3" vertex="1">
          <mxGeometry x="175" y="122" width="120" height="60" as="geometry" />
        </mxCell>
        <mxCell id="58YgrpQiF_lO7uGcpOr1-164" value="" style="endArrow=open;strokeColor=#FF0000;endFill=1;rounded=0;entryX=0;entryY=0.5;entryDx=0;entryDy=0;exitX=1.005;exitY=0.505;exitDx=0;exitDy=0;exitPerimeter=0;" parent="3" source="58YgrpQiF_lO7uGcpOr1-50" target="58YgrpQiF_lO7uGcpOr1-136" edge="1">
          <mxGeometry relative="1" as="geometry">
            <mxPoint x="154.5" y="152" as="sourcePoint" />
            <mxPoint x="238.0949999999998" y="151.85999999999996" as="targetPoint" />
            <Array as="points" />
          </mxGeometry>
        </mxCell>
        <mxCell id="4" value="Owner" style="swimlane;whiteSpace=wrap;startSize=23;fontStyle=2" parent="1" vertex="1">
          <mxGeometry x="773" y="130" width="285.5" height="1320" as="geometry" />
        </mxCell>
        <mxCell id="58YgrpQiF_lO7uGcpOr1-51" value="Notification to new forum" style="rounded=1;whiteSpace=wrap;html=1;fillColor=#dae8fc;strokeColor=#6c8ebf;" parent="4" vertex="1">
          <mxGeometry x="80" y="122" width="120" height="60" as="geometry" />
        </mxCell>
        <mxCell id="58YgrpQiF_lO7uGcpOr1-53" value="Do you want to open notification?" style="rhombus;whiteSpace=wrap;html=1;fillColor=#fff2cc;strokeColor=#d6b656;" parent="4" vertex="1">
          <mxGeometry x="70" y="262" width="140" height="140" as="geometry" />
        </mxCell>
        <mxCell id="58YgrpQiF_lO7uGcpOr1-54" value="" style="endArrow=open;strokeColor=#FF0000;endFill=1;rounded=0;exitX=0.5;exitY=1;exitDx=0;exitDy=0;entryX=0.5;entryY=0;entryDx=0;entryDy=0;" parent="4" source="58YgrpQiF_lO7uGcpOr1-51" target="58YgrpQiF_lO7uGcpOr1-53" edge="1">
          <mxGeometry relative="1" as="geometry">
            <mxPoint x="100" y="222" as="sourcePoint" />
            <mxPoint x="260" y="222" as="targetPoint" />
          </mxGeometry>
        </mxCell>
        <mxCell id="38" value="" style="ellipse;shape=endState;fillColor=#000000;strokeColor=#ff0000" parent="4" vertex="1">
          <mxGeometry x="125.5" y="457" width="30" height="30" as="geometry" />
        </mxCell>
        <mxCell id="39" value="" style="endArrow=open;strokeColor=#FF0000;endFill=1;rounded=0;exitX=0.5;exitY=1;exitDx=0;exitDy=0;" parent="4" source="58YgrpQiF_lO7uGcpOr1-53" target="38" edge="1">
          <mxGeometry relative="1" as="geometry">
            <mxPoint x="140.5" y="412.0000000000002" as="sourcePoint" />
          </mxGeometry>
        </mxCell>
        <mxCell id="58YgrpQiF_lO7uGcpOr1-55" value="No" style="text;html=1;strokeColor=none;fillColor=none;align=center;verticalAlign=middle;whiteSpace=wrap;rounded=0;" parent="4" vertex="1">
          <mxGeometry x="85.5" y="412" width="60" height="30" as="geometry" />
        </mxCell>
        <mxCell id="58YgrpQiF_lO7uGcpOr1-56" value="Yes" style="text;html=1;strokeColor=none;fillColor=none;align=center;verticalAlign=middle;whiteSpace=wrap;rounded=0;" parent="4" vertex="1">
          <mxGeometry x="10" y="292" width="60" height="30" as="geometry" />
        </mxCell>
        <mxCell id="58YgrpQiF_lO7uGcpOr1-64" value="Choose forum" style="rounded=1;whiteSpace=wrap;html=1;fillColor=#dae8fc;strokeColor=#6c8ebf;" parent="4" vertex="1">
          <mxGeometry x="80" y="552" width="120" height="60" as="geometry" />
        </mxCell>
        <mxCell id="58YgrpQiF_lO7uGcpOr1-65" value="Do you want to comment?" style="rhombus;whiteSpace=wrap;html=1;fillColor=#fff2cc;strokeColor=#d6b656;" parent="4" vertex="1">
          <mxGeometry x="70.5" y="792" width="140" height="140" as="geometry" />
        </mxCell>
        <mxCell id="58YgrpQiF_lO7uGcpOr1-67" value="" style="ellipse;shape=endState;fillColor=#000000;strokeColor=#ff0000" parent="4" vertex="1">
          <mxGeometry x="125.5" y="1262" width="30" height="30" as="geometry" />
        </mxCell>
        <mxCell id="58YgrpQiF_lO7uGcpOr1-68" value="" style="endArrow=open;strokeColor=#FF0000;endFill=1;rounded=0;exitX=0.5;exitY=1;exitDx=0;exitDy=0;" parent="4" source="58YgrpQiF_lO7uGcpOr1-82" target="58YgrpQiF_lO7uGcpOr1-67" edge="1">
          <mxGeometry relative="1" as="geometry">
            <mxPoint x="140.5" y="1202" as="sourcePoint" />
          </mxGeometry>
        </mxCell>
        <mxCell id="58YgrpQiF_lO7uGcpOr1-69" value="No" style="text;html=1;strokeColor=none;fillColor=none;align=center;verticalAlign=middle;whiteSpace=wrap;rounded=0;" parent="4" vertex="1">
          <mxGeometry x="80" y="932" width="60" height="30" as="geometry" />
        </mxCell>
        <mxCell id="58YgrpQiF_lO7uGcpOr1-70" value="Yes" style="text;html=1;strokeColor=none;fillColor=none;align=center;verticalAlign=middle;whiteSpace=wrap;rounded=0;" parent="4" vertex="1">
          <mxGeometry x="10.5" y="822" width="60" height="30" as="geometry" />
        </mxCell>
        <mxCell id="58YgrpQiF_lO7uGcpOr1-81" value="" style="endArrow=open;strokeColor=#FF0000;endFill=1;rounded=0;exitX=0.5;exitY=1;exitDx=0;exitDy=0;entryX=0.5;entryY=0;entryDx=0;entryDy=0;" parent="4" source="58YgrpQiF_lO7uGcpOr1-65" target="58YgrpQiF_lO7uGcpOr1-82" edge="1">
          <mxGeometry relative="1" as="geometry">
            <mxPoint x="140.5" y="932" as="sourcePoint" />
            <mxPoint x="140.5" y="1042" as="targetPoint" />
          </mxGeometry>
        </mxCell>
        <mxCell id="58YgrpQiF_lO7uGcpOr1-82" value="Do you want to see&amp;nbsp; &amp;nbsp;other forums?" style="rhombus;whiteSpace=wrap;html=1;fillColor=#fff2cc;strokeColor=#d6b656;" parent="4" vertex="1">
          <mxGeometry x="70.5" y="1041" width="140" height="140" as="geometry" />
        </mxCell>
        <mxCell id="58YgrpQiF_lO7uGcpOr1-85" value="No" style="text;html=1;strokeColor=none;fillColor=none;align=center;verticalAlign=middle;whiteSpace=wrap;rounded=0;" parent="4" vertex="1">
          <mxGeometry x="80" y="1192" width="60" height="30" as="geometry" />
        </mxCell>
        <mxCell id="58YgrpQiF_lO7uGcpOr1-88" value="Yes" style="text;html=1;strokeColor=none;fillColor=none;align=center;verticalAlign=middle;whiteSpace=wrap;rounded=0;" parent="4" vertex="1">
          <mxGeometry x="10.5" y="1072" width="60" height="30" as="geometry" />
        </mxCell>
        <mxCell id="58YgrpQiF_lO7uGcpOr1-57" value="" style="endArrow=open;strokeColor=#FF0000;endFill=1;rounded=0;exitX=0;exitY=0.5;exitDx=0;exitDy=0;entryX=1;entryY=0.5;entryDx=0;entryDy=0;" parent="1" source="58YgrpQiF_lO7uGcpOr1-53" target="58YgrpQiF_lO7uGcpOr1-58" edge="1">
          <mxGeometry relative="1" as="geometry">
            <mxPoint x="750" y="460" as="sourcePoint" />
            <mxPoint x="660" y="460" as="targetPoint" />
          </mxGeometry>
        </mxCell>
        <mxCell id="58YgrpQiF_lO7uGcpOr1-62" value="" style="endArrow=open;strokeColor=#FF0000;endFill=1;rounded=0;exitX=0.5;exitY=1;exitDx=0;exitDy=0;entryX=0;entryY=0.5;entryDx=0;entryDy=0;" parent="1" source="58YgrpQiF_lO7uGcpOr1-58" target="58YgrpQiF_lO7uGcpOr1-64" edge="1">
          <mxGeometry relative="1" as="geometry">
            <mxPoint x="670.5" y="592" as="sourcePoint" />
            <mxPoint x="590" y="710" as="targetPoint" />
            <Array as="points">
              <mxPoint x="600" y="590" />
              <mxPoint x="600" y="710" />
            </Array>
          </mxGeometry>
        </mxCell>
        <mxCell id="58YgrpQiF_lO7uGcpOr1-71" value="" style="endArrow=open;strokeColor=#FF0000;endFill=1;rounded=0;exitX=0;exitY=0.5;exitDx=0;exitDy=0;entryX=1;entryY=0.5;entryDx=0;entryDy=0;" parent="1" source="58YgrpQiF_lO7uGcpOr1-65" target="58YgrpQiF_lO7uGcpOr1-73" edge="1">
          <mxGeometry relative="1" as="geometry">
            <mxPoint x="750" y="1080" as="sourcePoint" />
            <mxPoint x="660" y="1080" as="targetPoint" />
          </mxGeometry>
        </mxCell>
        <mxCell id="58YgrpQiF_lO7uGcpOr1-76" value="" style="endArrow=open;strokeColor=#FF0000;endFill=1;rounded=0;exitX=0.5;exitY=1;exitDx=0;exitDy=0;entryX=1;entryY=0.5;entryDx=0;entryDy=0;" parent="1" source="58YgrpQiF_lO7uGcpOr1-64" target="58YgrpQiF_lO7uGcpOr1-77" edge="1">
          <mxGeometry relative="1" as="geometry">
            <mxPoint x="865" y="780" as="sourcePoint" />
            <mxPoint x="660" y="780" as="targetPoint" />
            <Array as="points">
              <mxPoint x="913" y="782" />
            </Array>
          </mxGeometry>
        </mxCell>
        <mxCell id="58YgrpQiF_lO7uGcpOr1-66" value="" style="endArrow=open;strokeColor=#FF0000;endFill=1;rounded=0;exitX=0.5;exitY=1;exitDx=0;exitDy=0;entryX=0.5;entryY=0;entryDx=0;entryDy=0;" parent="1" source="58YgrpQiF_lO7uGcpOr1-77" target="58YgrpQiF_lO7uGcpOr1-65" edge="1">
          <mxGeometry relative="1" as="geometry">
            <mxPoint x="864.5" y="930" as="sourcePoint" />
            <mxPoint x="984.5" y="970" as="targetPoint" />
            <Array as="points">
              <mxPoint x="600" y="850" />
              <mxPoint x="600" y="880" />
              <mxPoint x="730" y="880" />
              <mxPoint x="914" y="880" />
            </Array>
          </mxGeometry>
        </mxCell>
        <mxCell id="58YgrpQiF_lO7uGcpOr1-80" value="" style="endArrow=open;strokeColor=#FF0000;endFill=1;rounded=0;entryX=1;entryY=0.5;entryDx=0;entryDy=0;exitX=0.5;exitY=0;exitDx=0;exitDy=0;" parent="1" source="58YgrpQiF_lO7uGcpOr1-73" target="58YgrpQiF_lO7uGcpOr1-65" edge="1">
          <mxGeometry relative="1" as="geometry">
            <mxPoint x="590" y="960" as="sourcePoint" />
            <mxPoint x="960" y="990" as="targetPoint" />
            <Array as="points">
              <mxPoint x="600" y="900" />
              <mxPoint x="770" y="900" />
              <mxPoint x="860" y="900" />
              <mxPoint x="1010" y="900" />
              <mxPoint x="1010" y="940" />
              <mxPoint x="1010" y="990" />
            </Array>
          </mxGeometry>
        </mxCell>
        <mxCell id="58YgrpQiF_lO7uGcpOr1-87" value="" style="endArrow=open;strokeColor=#FF0000;endFill=1;rounded=0;exitX=0;exitY=0.5;exitDx=0;exitDy=0;entryX=0;entryY=0.5;entryDx=0;entryDy=0;" parent="1" source="58YgrpQiF_lO7uGcpOr1-82" target="58YgrpQiF_lO7uGcpOr1-58" edge="1">
          <mxGeometry relative="1" as="geometry">
            <mxPoint x="940" y="1239" as="sourcePoint" />
            <mxPoint x="1000" y="1239" as="targetPoint" />
            <Array as="points">
              <mxPoint x="470" y="1240" />
              <mxPoint x="470" y="920" />
              <mxPoint x="470" y="462" />
            </Array>
          </mxGeometry>
        </mxCell>
        <mxCell id="58YgrpQiF_lO7uGcpOr1-154" value="" style="endArrow=open;strokeColor=#FF0000;endFill=1;rounded=0;exitX=1;exitY=0.5;exitDx=0;exitDy=0;entryX=0;entryY=0.5;entryDx=0;entryDy=0;" parent="1" source="58YgrpQiF_lO7uGcpOr1-41" target="58YgrpQiF_lO7uGcpOr1-50" edge="1">
          <mxGeometry relative="1" as="geometry">
            <mxPoint x="370" y="282" as="sourcePoint" />
            <mxPoint x="468.0949999999998" y="281.78" as="targetPoint" />
            <Array as="points" />
          </mxGeometry>
        </mxCell>
        <mxCell id="58YgrpQiF_lO7uGcpOr1-163" value="" style="endArrow=open;strokeColor=#FF0000;endFill=1;rounded=0;entryX=0;entryY=0.5;entryDx=0;entryDy=0;exitX=1;exitY=0.5;exitDx=0;exitDy=0;" parent="1" source="58YgrpQiF_lO7uGcpOr1-136" target="58YgrpQiF_lO7uGcpOr1-51" edge="1">
          <mxGeometry relative="1" as="geometry">
            <mxPoint x="713.46" y="282.15" as="sourcePoint" />
            <mxPoint x="764" y="280.28" as="targetPoint" />
            <Array as="points" />
          </mxGeometry>
        </mxCell>
      </root>
    </mxGraphModel>
  </diagram>
</mxfile>
